<svg xmlns="http://www.w3.org/2000/svg" viewBox="0 0 720 176" role="img" aria-labelledby="title description">
  <title id="title">PanAvisos</title>
  <desc id="description">Logo horizontal de PanAvisos con monograma PA</desc>
  <g transform="translate(8 8)">
    <rect width="160" height="160" rx="31" fill="#07345F"/>
    <path
      fill="#FFFFFF"
      fill-rule="evenodd"
      d="M29 27h44c27 0 44 16 44 39 0 25-18 41-45 41H54v23H29V27Zm25 23v35h18c13 0 20-7 20-18 0-11-8-17-20-17H54Z"
    />
    <path fill="#FFFFFF" d="m78 130 29-71 31 71h-25l-6-16H91l-6 16H78Z"/>
    <path fill="#008A96" d="m97 98 10-24 10 24H97Z"/>
  </g>
  <text x="194" y="117" font-family="Arial, Helvetica, sans-serif" font-size="82" font-weight="800" letter-spacing="0">
    <tspan fill="#07345F">Pan</tspan><tspan fill="#008A96">Avisos</tspan>
  </text>
</svg>
